<svg width="0" height="0" class="hidden">
  <symbol version="1.0" xmlns="http://www.w3.org/2000/svg" preserveAspectRatio="xMidYMid meet" viewBox="0 0 920.000000 920.000000" id="game">
    <g transform="translate(0.000000,920.000000) scale(0.100000,-0.100000)" fill="currentColor" stroke="none">
      <path d="M4420 7545 l0 -1654 -1167 -4 c-1255 -4 -1214 -2 -1461 -56 -148 -32
-356 -106 -507 -180 -457 -224 -820 -587 -1046 -1046 -112 -228 -177 -435
-216 -690 -24 -156 -24 -488 1 -650 108 -713 519 -1317 1141 -1676 232 -133
476 -220 756 -270 150 -26 442 -36 615 -20 447 42 877 215 1191 480 l73 61
800 0 800 0 73 -61 c158 -134 404 -275 607 -349 120 -45 326 -96 465 -117 169
-25 537 -25 690 0 767 126 1393 583 1725 1261 165 336 233 629 234 1011 1 214
-10 318 -51 505 -162 734 -695 1358 -1393 1634 -238 93 -432 137 -725 160 -33
3 -552 5 -1152 6 l-1093 0 0 1655 0 1655 -180 0 -180 0 0 -1655z m-1660 -2990
l0 -505 505 0 505 0 0 -460 0 -460 -505 0 -505 0 0 -505 0 -505 -30 -1 c-16 0
-199 -1 -405 -1 -206 0 -400 1 -430 1 l-55 1 0 505 0 505 -460 0 -460 0 0 460
0 460 460 0 460 0 0 505 0 505 460 0 460 0 0 -505z m4741 459 c273 -80 419
-356 329 -620 -24 -69 -81 -154 -134 -200 -60 -53 -169 -102 -254 -115 -293
-44 -560 206 -540 506 15 204 155 375 354 430 68 18 180 18 245 -1z m-978
-1909 c227 -48 388 -258 375 -489 -15 -247 -197 -433 -443 -453 -242 -19 -466
159 -505 402 -45 284 174 545 465 553 22 1 70 -5 108 -13z"></path>
    </g>
  </symbol>
  <symbol version="1.0" xmlns="http://www.w3.org/2000/svg" preserveAspectRatio="xMidYMid meet" viewBox="0 0 1000.000000 459.000000" id="computer">
    <g transform="translate(0.000000,459.000000) scale(0.100000,-0.100000)" fill="currentColor" stroke="none">
      <path d="M3141 4252 l-28 -27 -6 -258 c-4 -142 -4 -679 0 -1195 l6 -937 30
-27 29 -28 1827 0 1827 0 32 29 32 30 0 493 c1 271 3 723 6 1003 2 281 1 595
-2 700 l-7 190 -28 27 -27 28 -1832 0 -1832 0 -27 -28z m3609 -1157 l0 -975
-1750 0 -1750 0 0 975 0 975 1750 0 1750 0 0 -975z"></path>
      <path d="M2798 1073 c-174 -351 -320 -648 -323 -660 -5 -17 4 -33 36 -68 l42
-45 2447 0 2447 0 42 45 c32 35 41 51 36 68 -3 12 -149 309 -323 660 l-316
637 -1886 0 -1886 0 -316 -637z m4120 219 c88 -186 164 -345 168 -355 6 -16
-114 -17 -2085 -17 -1150 0 -2091 3 -2091 6 0 5 98 213 260 552 l73 152 1757
0 1756 0 162 -338z m-1408 -427 c0 -3 16 -97 35 -208 19 -111 35 -212 35 -224
l0 -23 -580 0 -580 0 0 23 c0 12 16 114 35 226 19 112 35 206 35 207 0 2 230
4 510 4 281 0 510 -2 510 -5z"></path>
      <path d="M3280 1585 c-17 -20 -10 -26 39 -32 56 -8 109 4 121 27 10 19 7 20
-68 20 -59 0 -83 -4 -92 -15z"></path>
      <path d="M3483 1584 c-9 -25 17 -35 85 -31 59 3 81 14 82 40 0 4 -36 7 -80 7
-65 0 -82 -3 -87 -16z"></path>
      <path d="M3686 1584 c-12 -30 -6 -34 57 -34 81 0 107 8 107 31 0 17 -8 19 -79
19 -63 0 -80 -3 -85 -16z"></path>
      <path d="M3894 1585 c-10 -26 6 -35 61 -35 64 0 105 14 105 35 0 22 -158 22
-166 0z"></path>
      <path d="M4097 1581 c-5 -22 16 -31 78 -31 59 0 85 10 85 31 0 17 -8 19 -79
19 -69 0 -79 -2 -84 -19z"></path>
      <path d="M4303 1585 c-9 -25 4 -30 85 -30 72 0 77 1 80 23 3 21 1 22 -78 22
-63 0 -82 -3 -87 -15z"></path>
      <path d="M4510 1580 c0 -18 7 -20 80 -20 73 0 80 2 80 20 0 18 -7 20 -80 20
-73 0 -80 -2 -80 -20z"></path>
      <path d="M4712 1578 c3 -22 8 -23 83 -23 75 0 80 1 83 23 3 21 1 22 -83 22
-84 0 -86 -1 -83 -22z"></path>
      <path d="M4920 1581 c0 -21 35 -31 111 -31 46 0 49 2 49 25 0 25 -1 25 -80 25
-72 0 -80 -2 -80 -19z"></path>
      <path d="M5122 1578 c3 -21 9 -23 86 -26 82 -3 82 -3 82 23 0 25 -1 25 -86 25
-83 0 -85 -1 -82 -22z"></path>
      <path d="M5330 1581 c0 -23 26 -31 101 -31 63 0 69 3 62 31 -5 17 -15 19 -84
19 -71 0 -79 -2 -79 -19z"></path>
      <path d="M5530 1588 c1 -34 17 -41 89 -36 78 6 86 9 78 33 -8 20 -167 23 -167
3z"></path>
      <path d="M5740 1581 c0 -23 26 -31 109 -31 53 0 62 2 57 16 -3 9 -6 20 -6 25
0 5 -36 9 -80 9 -72 0 -80 -2 -80 -19z"></path>
      <path d="M5944 1585 c3 -9 6 -19 6 -21 0 -2 36 -4 81 -4 71 0 80 2 77 18 -3
14 -17 17 -87 20 -74 3 -83 1 -77 -13z"></path>
      <path d="M6150 1581 c0 -23 26 -31 102 -31 59 0 72 7 62 34 -5 13 -22 16 -85
16 -71 0 -79 -2 -79 -19z"></path>
      <path d="M6350 1593 c1 -26 23 -37 82 -40 68 -4 94 6 85 31 -5 13 -22 16 -87
16 -44 0 -80 -3 -80 -7z"></path>
      <path d="M6560 1585 c0 -23 48 -37 107 -33 60 5 66 9 57 32 -9 23 -164 24
-164 1z"></path>
      <path d="M3231 1491 l-20 -39 85 -7 c47 -4 90 -3 94 2 5 4 16 25 25 46 l15 37
-90 0 -90 0 -19 -39z"></path>
      <path d="M3466 1508 c-8 -13 -16 -32 -18 -43 -3 -21 -12 -20 164 -15 14 0 38
45 38 71 0 5 -38 9 -85 9 -77 0 -86 -2 -99 -22z"></path>
      <path d="M3684 1495 c-7 -19 -14 -36 -14 -39 0 -8 147 -18 168 -12 12 4 23 21
30 46 l10 40 -90 0 -89 0 -15 -35z"></path>
      <path d="M3917 1523 c-3 -5 -8 -23 -12 -40 l-7 -33 91 0 c49 0 92 3 94 8 3 4
8 22 12 40 l7 32 -91 0 c-49 0 -92 -3 -94 -7z"></path>
      <path d="M4135 1494 c-3 -20 -3 -39 0 -42 3 -4 43 -6 87 -5 87 2 98 8 98 56
l0 27 -89 0 -89 0 -7 -36z"></path>
      <path d="M4365 1518 c-2 -7 -5 -25 -8 -40 -4 -24 -1 -28 22 -29 30 -2 155 2
157 4 1 1 4 19 8 40 l7 37 -91 0 c-64 0 -92 -4 -95 -12z"></path>
      <path d="M4586 1495 c-4 -20 -4 -40 -1 -45 7 -11 56 -13 133 -4 l52 7 0 38 0
39 -89 0 -89 0 -6 -35z"></path>
      <path d="M4810 1490 c0 -38 1 -40 33 -41 17 -1 55 -3 82 -5 64 -4 73 2 67 49
l-4 37 -89 0 -89 0 0 -40z"></path>
      <path d="M5042 1488 l3 -43 40 1 c22 1 61 2 88 3 l47 1 0 40 0 40 -91 0 -90 0
3 -42z"></path>
      <path d="M5260 1506 c0 -53 6 -56 101 -56 96 0 98 1 83 58 -6 21 -11 22 -95
22 -87 0 -89 0 -89 -24z"></path>
      <path d="M5487 1493 c3 -21 7 -39 8 -41 4 -4 177 -4 181 0 1 2 -1 19 -5 38
l-7 35 -91 3 -92 3 6 -38z"></path>
      <path d="M5713 1494 c3 -20 9 -39 12 -43 11 -10 149 -12 164 -3 10 7 12 20 7
46 l-7 36 -91 0 -91 0 6 -36z"></path>
      <path d="M5930 1522 c0 -5 5 -23 11 -40 l10 -31 87 -3 c48 -2 89 -2 91 -1 2 1
-1 19 -6 40 l-9 38 -92 3 c-51 1 -92 -1 -92 -6z"></path>
      <path d="M6164 1498 c10 -53 25 -58 160 -53 67 2 149 4 184 4 67 1 73 7 50 56
l-11 25 -195 0 -194 0 6 -32z"></path>
      <path d="M6605 1493 c21 -49 31 -55 84 -48 24 3 57 5 73 5 l28 0 -20 40 -20
40 -80 0 -80 0 15 -37z"></path>
      <path d="M3252 1423 c-47 -4 -55 -8 -72 -36 -11 -18 -20 -35 -20 -39 0 -5 70
-8 155 -8 l154 0 16 30 c30 57 25 60 -82 58 -54 -1 -122 -3 -151 -5z"></path>
      <path d="M3550 1410 c-11 -11 -20 -24 -20 -29 0 -5 -3 -16 -6 -25 -5 -14 6
-16 88 -16 92 0 95 1 106 25 27 58 20 65 -68 65 -67 0 -83 -3 -100 -20z"></path>
      <path d="M3783 1418 c-6 -7 -15 -28 -21 -45 l-11 -33 95 0 c92 0 95 1 104 26
23 60 18 64 -74 64 -55 0 -87 -4 -93 -12z"></path>
      <path d="M4035 1421 c-20 -4 -31 -14 -36 -31 -14 -50 -15 -50 86 -50 90 0 95
1 100 23 14 64 15 62 -55 63 -36 0 -78 -2 -95 -5z"></path>
      <path d="M4278 1422 c-32 -3 -39 -8 -44 -30 -3 -15 -7 -33 -10 -39 -2 -10 20
-13 91 -13 51 0 96 3 98 8 3 4 7 23 9 42 l3 35 -55 0 c-30 0 -72 -1 -92 -3z"></path>
      <path d="M4509 1423 c-28 -3 -38 -10 -43 -26 -15 -56 -13 -57 88 -57 l94 0 5
38 c2 20 2 40 0 45 -4 7 -75 7 -144 0z"></path>
      <path d="M4734 1422 c-26 -3 -33 -8 -38 -34 -3 -17 -6 -34 -6 -39 0 -5 42 -9
94 -9 l93 0 6 37 c4 20 4 40 1 45 -5 8 -66 8 -150 0z"></path>
      <path d="M4958 1423 c-25 -4 -28 -8 -28 -44 l0 -39 95 0 95 0 0 39 c0 26 -5
41 -16 45 -17 6 -101 6 -146 -1z"></path>
      <path d="M5165 1421 c-3 -6 -3 -26 1 -46 l6 -35 87 0 c48 0 90 2 93 5 3 3 2
22 -1 43 l-6 37 -87 3 c-51 2 -89 -1 -93 -7z"></path>
      <path d="M5396 1421 c-4 -6 -4 -26 0 -46 l6 -35 95 0 95 0 -7 38 c-4 20 -8 38
-9 39 0 1 -40 5 -87 9 -59 4 -88 3 -93 -5z"></path>
      <path d="M5647 1423 c-26 -4 -28 -7 -21 -36 3 -18 8 -35 11 -39 2 -5 44 -8 94
-8 98 0 102 4 79 64 -9 24 -13 26 -72 25 -35 -1 -76 -4 -91 -6z"></path>
      <path d="M5856 1422 c-3 -5 -1 -25 5 -45 l10 -37 95 0 94 0 -6 28 c-15 60 -18
62 -109 62 -46 0 -86 -4 -89 -8z"></path>
      <path d="M6108 1423 c-19 -5 -22 -22 -12 -60 6 -22 11 -23 100 -23 52 0 94 4
94 9 0 4 -5 22 -11 38 -7 23 -18 32 -41 37 -34 7 -103 6 -130 -1z"></path>
      <path d="M6353 1423 c-18 -2 -33 -10 -33 -16 1 -37 16 -59 50 -73 29 -12 40
-23 50 -55 7 -21 19 -44 26 -49 7 -6 57 -10 120 -8 129 4 127 0 67 124 l-38
79 -105 1 c-58 1 -120 -1 -137 -3z"></path>
      <path d="M6678 1423 c-32 -5 -34 -13 -13 -53 15 -29 17 -30 95 -30 44 0 80 2
80 5 0 12 -33 70 -44 77 -11 8 -70 8 -118 1z"></path>
      <path d="M3126 1274 c-14 -21 -26 -42 -26 -46 0 -5 86 -8 190 -8 l190 0 17 35
c9 19 13 38 9 42 -4 5 -86 10 -181 11 l-173 4 -26 -38z"></path>
      <path d="M3566 1303 c-7 -7 -36 -71 -36 -79 0 -2 43 -4 95 -4 l94 0 16 31 c27
51 16 59 -78 59 -46 0 -87 -3 -91 -7z"></path>
      <path d="M3791 1279 c-20 -58 -19 -59 84 -59 l94 0 10 38 c6 20 11 40 11 45 0
4 -42 7 -94 7 l-94 0 -11 -31z"></path>
      <path d="M4036 1302 c-2 -4 -7 -24 -11 -45 l-7 -37 95 0 96 0 10 38 c6 20 11
40 11 45 0 9 -187 9 -194 -1z"></path>
      <path d="M4289 1304 c-14 -4 -29 -43 -29 -75 0 -11 187 -12 193 -1 3 4 7 23 9
42 l3 35 -80 2 c-44 0 -87 -1 -96 -3z"></path>
      <path d="M4529 1303 c-9 -2 -19 -16 -22 -30 -9 -50 -2 -54 97 -51 l91 3 3 43
3 42 -78 -1 c-43 -1 -85 -3 -94 -6z"></path>
      <path d="M4773 1303 c-19 -4 -23 -11 -23 -44 l0 -40 93 3 92 3 3 43 3 42 -73
-1 c-40 -1 -83 -4 -95 -6z"></path>
      <path d="M4987 1303 c-2 -4 -2 -25 0 -45 l5 -38 95 0 94 0 -3 43 -3 42 -92 3
c-50 1 -93 -1 -96 -5z"></path>
      <path d="M5227 1303 c-2 -4 -2 -25 0 -45 l5 -38 95 0 94 0 -3 43 -3 42 -92 3
c-50 1 -93 -1 -96 -5z"></path>
      <path d="M5460 1297 c0 -8 3 -29 6 -46 l7 -31 94 0 94 0 -3 43 -3 42 -97 3
c-79 2 -98 0 -98 -11z"></path>
      <path d="M5700 1292 c0 -12 4 -32 10 -46 9 -25 12 -26 106 -26 l96 0 -7 33
c-4 17 -11 37 -17 42 -5 6 -49 12 -98 13 -85 4 -90 3 -90 -16z"></path>
      <path d="M5940 1291 c0 -11 4 -31 10 -45 9 -25 12 -26 105 -26 52 0 95 4 95 9
0 19 -21 66 -33 73 -7 4 -49 8 -94 8 -75 0 -83 -2 -83 -19z"></path>
      <path d="M6194 1302 c-21 -7 -21 -8 -7 -44 l15 -38 94 0 c58 0 94 4 94 10 0 6
-7 26 -14 45 l-15 35 -73 -1 c-40 -1 -83 -4 -94 -7z"></path>
      <path d="M6700 1295 c0 -2 8 -20 17 -40 l17 -35 83 0 c46 0 83 2 83 5 0 2 -8
20 -17 40 l-17 35 -83 0 c-46 0 -83 -2 -83 -5z"></path>
      <path d="M3062 1151 c-12 -21 -22 -44 -22 -50 0 -7 42 -11 135 -11 l135 0 20
40 c11 23 18 45 15 50 -4 6 -63 10 -134 10 l-127 0 -22 -39z"></path>
      <path d="M3386 1149 c-9 -22 -14 -45 -11 -50 4 -5 47 -9 96 -9 l90 0 19 42
c10 23 16 46 14 50 -3 4 -47 8 -99 8 l-93 0 -16 -41z"></path>
      <path d="M3634 1155 c-26 -64 -25 -65 82 -65 l95 0 15 35 c26 64 25 65 -82 65
l-95 0 -15 -35z"></path>
      <path d="M3898 1178 c-9 -7 -20 -30 -23 -50 l-7 -38 96 0 c104 0 106 1 121 68
l7 32 -89 0 c-56 0 -95 -5 -105 -12z"></path>
      <path d="M4136 1182 c-3 -5 -8 -28 -12 -51 l-7 -43 97 3 c106 4 116 10 116 67
l0 32 -94 0 c-52 0 -97 -4 -100 -8z"></path>
      <path d="M4392 1181 c-8 -4 -16 -27 -19 -50 l-6 -41 96 0 c53 0 98 3 100 8 3
4 8 26 12 50 l7 42 -89 0 c-48 0 -94 -4 -101 -9z"></path>
      <path d="M4626 1174 c-3 -9 -6 -31 -6 -50 l0 -34 99 0 98 0 7 41 c4 22 4 44 1
50 -4 5 -48 9 -100 9 -75 0 -94 -3 -99 -16z"></path>
      <path d="M4883 1184 c-8 -3 -13 -24 -13 -50 l0 -44 100 0 100 0 0 45 c0 43 -1
45 -29 45 -15 0 -55 2 -87 5 -32 2 -65 2 -71 -1z"></path>
      <path d="M5119 1186 c-2 -3 -3 -25 -1 -50 l4 -46 100 0 99 0 -3 48 -3 47 -95
3 c-53 1 -98 1 -101 -2z"></path>
      <path d="M5365 1148 c4 -24 8 -44 9 -45 1 -1 46 -5 99 -9 l97 -7 0 29 c0 73
-2 74 -112 74 l-100 0 7 -42z"></path>
      <path d="M5610 1159 c0 -63 10 -69 117 -69 l96 0 -7 42 c-4 22 -9 45 -12 50
-3 4 -48 8 -100 8 l-94 0 0 -31z"></path>
      <path d="M5854 1174 c3 -9 6 -24 6 -34 0 -39 26 -50 121 -50 99 0 101 2 78 69
l-11 31 -100 0 c-87 0 -99 -2 -94 -16z"></path>
      <path d="M6123 1183 c-27 -5 -28 -12 -9 -58 l15 -35 305 0 c205 0 306 3 306
10 0 6 -9 29 -20 50 l-20 40 -278 -1 c-152 -1 -287 -4 -299 -6z"></path>
      <path d="M6770 1181 c-13 -9 -12 -15 5 -48 l20 -38 83 -3 c50 -2 82 1 82 7 0
6 -8 26 -17 46 -13 27 -23 35 -43 35 -15 0 -47 2 -71 5 -24 3 -51 1 -59 -4z"></path>
      <path d="M3012 1048 c-20 -27 -43 -79 -37 -88 3 -6 49 -10 100 -10 l95 0 24
49 25 49 -22 6 c-42 11 -174 7 -185 -6z"></path>
      <path d="M3249 1013 c-25 -59 -20 -63 94 -63 l88 0 20 45 c11 25 17 50 14 55
-3 6 -49 10 -101 10 l-95 0 -20 -47z"></path>
      <path d="M3505 1014 c-11 -29 -14 -49 -8 -55 5 -5 52 -8 104 -7 l94 3 14 44
c18 56 11 61 -100 61 l-86 0 -18 -46z"></path>
      <path d="M3764 1025 c-29 -70 -17 -78 110 -73 l80 3 12 47 c11 44 10 47 -10
52 -11 3 -56 6 -99 6 l-78 0 -15 -35z"></path>
      <path d="M4026 1052 c-3 -5 -8 -27 -12 -49 l-6 -40 62 -6 c35 -4 362 -7 728
-7 l665 0 -6 45 c-2 26 -8 49 -12 53 -10 11 -1412 15 -1419 4z"></path>
      <path d="M5503 1014 c2 -26 11 -51 18 -56 15 -9 183 -7 193 3 3 3 2 25 -2 50
l-8 44 -103 3 -104 3 6 -47z"></path>
      <path d="M5762 1052 c-9 -6 -11 -19 -7 -38 16 -68 9 -64 108 -64 116 0 121 3
104 61 l-13 44 -89 3 c-50 1 -96 -2 -103 -6z"></path>
      <path d="M6012 1018 c15 -62 28 -68 135 -68 51 0 93 1 93 3 0 2 -7 27 -15 55
l-16 52 -103 0 -104 0 10 -42z"></path>
      <path d="M6273 1045 c-3 -9 1 -32 9 -53 l14 -37 93 -3 c52 -1 99 2 104 7 6 6
3 26 -8 55 l-18 46 -94 0 c-75 0 -95 -3 -100 -15z"></path>
      <path d="M6541 1051 c-11 -7 -11 -15 1 -52 l15 -44 64 -3 c35 -2 83 -1 105 3
l42 6 -21 49 -21 50 -85 0 c-48 0 -92 -4 -100 -9z"></path>
      <path d="M6798 1053 c-16 -4 -15 -9 7 -54 l25 -49 95 0 c52 0 97 4 100 10 4 6
-4 29 -17 53 l-23 42 -85 2 c-47 0 -93 -1 -102 -4z"></path>
    </g>
  </symbol>
  <symbol version="1.0" xmlns="http://www.w3.org/2000/svg" preserveAspectRatio="xMidYMid meet" viewBox="0 0 251.000000 201.000000" id="film">
    <g transform="translate(0.000000,201.000000) scale(0.100000,-0.100000)" fill="currentColor" stroke="none">
      <path d="M1374 1995 c-191 -41 -355 -194 -415 -385 -32 -104 -57 -106 -144
-12 -106 115 -209 156 -368 150 -93 -3 -109 -7 -177 -40 -140 -68 -238 -201
-259 -354 -31 -216 97 -429 300 -501 43 -15 49 -21 49 -45 0 -26 -3 -28 -43
-28 -24 0 -71 11 -105 25 -63 25 -132 33 -132 15 0 -6 27 -64 60 -129 50 -102
62 -119 79 -114 11 3 27 16 36 29 12 19 24 24 60 24 l45 0 0 -295 0 -295 810
0 810 0 0 485 0 485 -61 0 -61 0 55 60 c128 142 174 329 127 514 -28 109 -63
169 -150 257 -140 141 -323 196 -516 154z m236 -279 c93 -43 151 -128 158
-234 9 -124 -48 -226 -154 -278 -218 -107 -467 98 -400 329 50 173 234 258
396 183z m-1052 -192 c85 -35 142 -120 142 -214 0 -206 -244 -308 -389 -162
-89 90 -95 217 -15 311 65 75 174 102 262 65z m465 -383 c9 -15 37 -51 63 -80
l46 -51 -142 0 c-78 0 -140 3 -138 8 2 4 17 35 33 69 31 64 33 65 115 82 3 1
13 -12 23 -28z m832 -921 c27 -29 10 -74 -28 -78 -36 -4 -57 13 -57 49 0 47
53 65 85 29z"></path>
      <path d="M1432 1648 c-17 -17 -15 -53 3 -68 20 -17 62 -5 70 21 13 40 -44 76
-73 47z"></path>
      <path d="M1572 1558 c-32 -32 4 -87 48 -73 25 8 37 50 20 70 -15 18 -51 20
-68 3z"></path>
      <path d="M1328 1529 c-36 -20 -19 -79 23 -79 49 0 62 57 18 80 -21 12 -20 12
-41 -1z"></path>
      <path d="M1556 1394 c-9 -8 -16 -22 -16 -29 0 -7 7 -21 16 -29 30 -30 74 -13
74 29 0 42 -44 59 -74 29z"></path>
      <path d="M1380 1365 c-17 -20 -5 -62 20 -70 44 -14 80 41 48 73 -17 17 -53 15
-68 -3z"></path>
      <path d="M419 1454 c-9 -11 -10 -20 -2 -32 15 -24 44 -27 59 -7 28 38 -27 75
-57 39z"></path>
      <path d="M534 1386 c-10 -26 1 -51 22 -54 27 -4 47 21 39 48 -7 24 -53 28 -61
6z"></path>
      <path d="M331 1351 c-13 -24 8 -55 34 -50 28 6 42 34 26 53 -18 22 -48 20 -60
-3z"></path>
      <path d="M521 1251 c-13 -24 8 -55 34 -50 28 6 42 34 26 53 -18 22 -48 20 -60
-3z"></path>
      <path d="M392 1238 c-30 -30 3 -77 40 -57 30 16 16 69 -17 69 -6 0 -16 -5 -23
-12z"></path>
      <path d="M2365 985 l-139 -85 -113 0 -113 0 0 -215 0 -215 107 0 108 0 143
-86 c79 -48 145 -84 148 -82 2 3 3 176 2 386 l-3 381 -140 -84z"></path>
    </g>
  </symbol>
  <symbol xmlns="http://www.w3.org/2000/svg" viewBox="0 0 508.044 508.044" id="quotes">
    <path d="M.108 352.536c0 66.794 54.144 120.938 120.937 120.938 66.794 0 120.938-54.144 120.938-120.938s-54.144-120.937-120.938-120.937c-13.727 0-26.867 2.393-39.168 6.61C109.093 82.118 230.814-18.543 117.979 64.303-7.138 156.17-.026 348.84.114 352.371c0 .055-.006.104-.006.165zm266.061 0c0 66.794 54.144 120.938 120.938 120.938s120.938-54.144 120.938-120.938S453.9 231.599 387.106 231.599c-13.728 0-26.867 2.393-39.168 6.61C375.154 82.118 496.875-18.543 384.04 64.303 258.923 156.17 266.034 348.84 266.175 352.371c0 .055-.006.104-.006.165z"/>
  </symbol>
  <symbol xmlns="http://www.w3.org/2000/svg" viewBox="0 0 24 24" id="menu">
    <path d="M21.5 24h-19A2.503 2.503 0 010 21.5v-19C0 1.122 1.121 0 2.5 0h19C22.879 0 24 1.122 24 2.5v19c0 1.378-1.121 2.5-2.5 2.5zM2.5 1C1.673 1 1 1.673 1 2.5v19c0 .827.673 1.5 1.5 1.5h19c.827 0 1.5-.673 1.5-1.5v-19c0-.827-.673-1.5-1.5-1.5z"/>
    <path d="M16.5 8h-9a.5.5 0 010-1h9a.5.5 0 010 1zm0 4.5h-9a.5.5 0 010-1h9a.5.5 0 010 1zm0 4.5h-9a.5.5 0 010-1h9a.5.5 0 010 1z"/>
  </symbol>
  <symbol xmlns="http://www.w3.org/2000/svg" viewBox="0 0 512 512" id="snap">
    <path d="M460.646 10H43.938C25.224 10 10 25.521 10 44.6v420.122c0 19.078 15.224 34.6 33.89 34.6 3.139.025 315.346 2.492 438.5 2.679h.03a19.282 19.282 0 0013.827-5.813A19.917 19.917 0 00502 481.77l-7.421-437.793C494.249 25.242 479.026 10 460.646 10zM43.938 22h416.708c11.879 0 21.719 9.954 21.935 22.184l6.511 384.244-96.777-99.462a33.563 33.563 0 00-54.35-3.721l-45.03 53.805a21.4 21.4 0 01-18.452 7.764 21.636 21.636 0 01-17.013-10.959l-81.253-140.576a33.583 33.583 0 00-56.1-3.578L22 345.014V44.6C22 32.138 31.841 22 43.938 22zm443.767 465.764a7.377 7.377 0 01-5.282 2.236h-.011c-123.12-.187-435.288-2.654-438.474-2.679-12.1 0-21.938-10.138-21.938-22.6V363.346L129.321 239.4l.271-.337a21.585 21.585 0 0136.236 2.221L247.08 381.86a33.576 33.576 0 0055.057 4.892l45.03-53.805a21.57 21.57 0 0135.25 2.83l.356.591L489.388 445.94l.612 36.028a8.007 8.007 0 01-2.295 5.796z"/>
    <path d="M284.988 218.5c29.7 0 53.864-24.671 53.864-54.995s-24.164-54.995-53.864-54.995-53.863 24.671-53.863 54.995 24.163 54.995 53.863 54.995zm0-97.99c23.084 0 41.864 19.287 41.864 42.995s-18.78 43-41.864 43-41.863-19.288-41.863-42.995 18.775-42.996 41.863-42.996z"/>
  </symbol>
  <symbol xmlns="http://www.w3.org/2000/svg" viewBox="0 0 512 512" id="wordpress">
    <path d="M41.073 152.466a10.2 10.2 0 00-18.895-.657C7.468 184.791.009 219.844.009 255.99c0 48.964 13.875 96.559 40.124 137.639 25.548 39.983 61.564 72.053 104.158 92.743a10.194 10.194 0 0011.29-1.604 10.2 10.2 0 002.747-11.068L41.073 152.466zM20.408 255.99c0-24.264 3.652-47.994 10.883-70.837l98.5 269.854C61.706 412.039 20.408 337.973 20.408 255.99zm324.968 224.775l-75.473-206.771a10.2 10.2 0 00-9.58-6.702h-.096a10.203 10.203 0 00-9.55 6.88l-73.753 214.293a10.195 10.195 0 006.766 13.104A256.135 256.135 0 00256.001 512c29.053 0 57.656-4.883 85.015-14.514a10.204 10.204 0 006.226-6.212 10.194 10.194 0 00-.922-8.747c-.423-.691-.726-1.255-.944-1.762zm-89.375 10.837a235.616 235.616 0 01-56.238-6.818l60.841-176.773 63.36 173.59c-22.027 6.64-44.838 10.001-67.963 10.001z"/>
    <path d="M373.292 403.888c4.314 0 8.167-2.717 9.612-6.788l27.138-76.438c13.018-33.396 19.346-60.555 19.346-83.022 0-33.87-10.023-51.413-18.869-66.891a10.448 10.448 0 00-.167-.283c-.982-1.597-1.959-3.175-2.926-4.737-10.569-17.065-19.698-31.803-19.698-47.571 0-16.074 11.879-33.424 31.069-33.424.317 0 .804.041 1.321.085.404.034.805.067 1.209.093 4.329.281 8.341-2.2 10.038-6.179a10.2 10.2 0 00-2.492-11.52C381.573 23.87 320.18 0 256.001 0 169.666 0 89.708 43.127 42.115 115.365a10.199 10.199 0 008.179 15.805c6.281.208 11.719.314 16.16.314 23.686 0 58.376-2.55 65.182-3.068 1.089 1.962 1.193 6.64.137 8.39-2.685.3-14.319 1.553-26.893 2.209a10.196 10.196 0 00-9.137 13.433l80.48 239.565a10.198 10.198 0 009.668 6.951h.011a10.2 10.2 0 009.665-6.973l53.793-161.323a10.2 10.2 0 00-.122-6.8l-29.269-78.243a10.2 10.2 0 00-8.959-6.608c-11.584-.675-22.772-1.988-24.791-2.231-.919-1.946-.707-6.437.377-8.368 7.002.524 42.099 3.064 64.336 3.064 23.69 0 58.382-2.55 65.184-3.068 1.09 1.961 1.196 6.641.139 8.389-2.677.3-14.328 1.554-26.896 2.211a10.2 10.2 0 00-9.123 13.478l83.404 244.49a10.2 10.2 0 009.59 6.906h.062zM303.83 158.48c8.698-.708 14.988-1.437 15.375-1.483 11.726-1.386 19.321-12.743 18.061-27.005-1.206-13.633-10.034-22.696-21.423-22.014l-.198.013c-.395.031-39.714 3.092-64.716 3.092-23.477 0-63.551-3.063-63.953-3.093a5.5 5.5 0 00-.184-.012c-11.588-.695-20.652 9.083-21.489 23.228-.836 14.126 6.861 24.914 18.351 25.817 1.624.197 9.756 1.164 19.509 1.907l25.701 68.706-43.012 128.993-66.564-198.143c8.736-.709 15.053-1.442 15.444-1.488 11.724-1.386 19.316-12.747 18.055-27.012-1.207-13.629-10.032-22.697-21.419-22.007l-.198.013c-.374.031-35.884 2.795-60.879 3.071 44.547-57.103 112.646-90.666 185.71-90.666 51.924 0 101.868 16.978 142.757 48.187-18.452 8.187-31.428 27.326-31.428 49.574 0 21.573 11.053 39.419 22.755 58.312.927 1.497 1.864 3.01 2.806 4.541 8.29 14.509 16.097 28.269 16.097 56.629 0 19.642-6.058 45.128-18.008 75.755-.038.098-.074.196-.109.295l-17.388 48.972L303.83 158.48z"/>
    <path d="M480.631 133.175a10.205 10.205 0 00-12.133-4.786 10.202 10.202 0 00-6.917 11.059c1.038 7.665 1.566 15.707 1.566 23.901 0 26.824-5.711 53.594-17.971 84.247-.06.15-.116.302-.169.454l-75.07 217.056a10.201 10.201 0 009.643 13.532 10.17 10.17 0 005.132-1.388c38.017-22.163 69.889-53.921 92.171-91.842 22.969-39.088 35.109-83.839 35.109-129.417-.001-42.904-10.845-85.374-31.361-122.816zm-81.473 309.854l65.051-188.086c9.331-23.375 15.137-44.781 17.736-65.726a236.37 236.37 0 019.65 66.774c0 73.498-34.797 142.771-92.437 187.038zm-136.872-73.295c-5.342-1.782-11.119 1.108-12.901 6.451l-1.36 4.079c-1.781 5.343 1.108 11.119 6.451 12.901 1.07.357 2.157.526 3.226.526 4.27 0 8.25-2.703 9.675-6.977l1.36-4.079c1.781-5.343-1.108-11.119-6.451-12.901zm-12.579 37.738c-5.344-1.786-11.119 1.108-12.901 6.45l-16.999 50.996c-1.781 5.343 1.108 11.119 6.451 12.9a10.15 10.15 0 003.226.527c4.27 0 8.25-2.703 9.675-6.977l16.998-50.996c1.782-5.343-1.107-11.119-6.45-12.9z"/>
  </symbol>
  <symbol xmlns="http://www.w3.org/2000/svg" viewBox="0 0 512 512" id="growth">
    <path d="M504.5 480.837h-38.97V240.49c0-4.142-3.357-7.5-7.5-7.5s-7.5 3.358-7.5 7.5v240.347h-49.648l-.002-318.357h49.65v43.01c0 4.142 3.357 7.5 7.5 7.5s7.5-3.358 7.5-7.5v-50.51a7.5 7.5 0 00-7.5-7.5h-64.65a7.5 7.5 0 00-7.5 7.5v43.012h-57.148a7.5 7.5 0 00-7.5 7.5V248.5h-57.15a7.5 7.5 0 00-7.5 7.5v43.008h-57.15a7.5 7.5 0 00-7.5 7.5v43.008h-57.15a7.5 7.5 0 00-7.5 7.5v38.964H70.13a7.5 7.5 0 00-7.5 7.5v20.89c0 4.142 3.357 7.5 7.5 7.5s7.5-3.358 7.5-7.5v-13.39h49.65v69.857H77.63V459.37c0-4.142-3.357-7.5-7.5-7.5s-7.5 3.358-7.5 7.5v21.467H31.163V7.5c0-4.142-3.357-7.5-7.5-7.5s-7.5 3.358-7.5 7.5v38.967H7.5c-4.143 0-7.5 3.358-7.5 7.5s3.357 7.5 7.5 7.5h8.663v49.65H7.5c-4.143 0-7.5 3.358-7.5 7.5s3.357 7.5 7.5 7.5h8.663v49.65H7.5c-4.143 0-7.5 3.358-7.5 7.5s3.357 7.5 7.5 7.5h8.663v49.65H7.5c-4.143 0-7.5 3.358-7.5 7.5s3.357 7.5 7.5 7.5h8.663v49.651H7.5c-4.143 0-7.5 3.358-7.5 7.5s3.357 7.5 7.5 7.5h8.663v49.65H7.5c-4.143 0-7.5 3.358-7.5 7.5s3.357 7.5 7.5 7.5h8.663v49.65H7.5c-4.143 0-7.5 3.358-7.5 7.5s3.357 7.5 7.5 7.5h8.663v38.967a7.5 7.5 0 007.5 7.5H62.63v8.663c0 4.142 3.357 7.5 7.5 7.5s7.5-3.358 7.5-7.5v-8.66h49.65v8.66c0 4.142 3.357 7.5 7.5 7.5s7.5-3.358 7.5-7.5v-8.663h49.65v8.663c0 4.142 3.357 7.5 7.5 7.5s7.5-3.358 7.5-7.5v-8.663h49.65v8.663c0 4.142 3.357 7.5 7.5 7.5s7.5-3.358 7.5-7.5v-8.663h49.65v8.663c0 4.142 3.357 7.5 7.5 7.5s7.5-3.358 7.5-7.5v-8.663h49.65v8.663c0 4.142 3.357 7.5 7.5 7.5s7.5-3.358 7.5-7.5v-8.66h49.65v8.66c0 4.142 3.357 7.5 7.5 7.5s7.5-3.358 7.5-7.5v-8.663h38.97a7.5 7.5 0 100-14.998zM142.28 364.516h49.65v116.321h-49.65zm64.651-50.508h49.65v166.829h-49.65zm64.65-50.508h49.65v217.337h-49.65zm64.65-50.508h49.648v267.846h-49.648z"/>
    <path d="M86.1 338.44c6.323 0 12.267-2.46 16.734-6.927l112.91-112.91a7.5 7.5 0 00-10.607-10.606L92.228 320.906a8.61 8.61 0 01-6.128 2.534c-2.311 0-4.482-.9-6.116-2.533a8.614 8.614 0 01-2.543-6.13c0-2.311.901-4.484 2.543-6.123l263.521-263.52a7.499 7.499 0 00-5.304-12.803h-23.61c-4.775 0-8.66-3.889-8.66-8.67 0-4.775 3.885-8.66 8.66-8.66h62.63c4.775 0 8.66 3.885 8.66 8.66v62.63c0 4.781-3.885 8.67-8.66 8.67s-8.66-3.889-8.66-8.67V62.68a7.499 7.499 0 00-12.804-5.303l-125.88 125.88a7.5 7.5 0 0010.607 10.606L353.56 80.787v5.503c0 13.052 10.614 23.67 23.66 23.67s23.66-10.618 23.66-23.67V23.66C400.88 10.614 390.266 0 377.22 0h-62.63c-13.046 0-23.66 10.614-23.66 23.66 0 13.052 10.614 23.67 23.66 23.67h5.504L69.38 298.043c-4.475 4.469-6.939 10.412-6.939 16.733 0 6.32 2.463 12.264 6.937 16.737A23.491 23.491 0 0086.1 338.44z"/>
  </symbol>
  <symbol xmlns="http://www.w3.org/2000/svg" viewBox="0 0 512 512" id="easy">
    <path d="M184 304H72a8 8 0 00-8 8v96a8 8 0 008 8h112a8 8 0 008-8v-96a8 8 0 00-8-8zm-8 96H80v-80h96z"/>
    <path d="M96 336h32v16H96zm32 32h32v16h-32z"/>
    <path d="M380 64H136V24a8 8 0 00-12.878-6.34l-104 80a8 8 0 000 12.68l104 80A8 8 0 00136 184v-40h216a64.072 64.072 0 0164 64v144a63.897 63.897 0 01-48 61.993V232a8 8 0 00-8-8H24a8 8 0 00-8 8v256a8 8 0 008 8h356a116.131 116.131 0 00116-116V180A116.131 116.131 0 00380 64zm-28 176v192H240V240zm-208 0v32h-32v-32zm-112 0h64v40a8 8 0 008 8h48a8 8 0 008-8v-40h64v192H32zm448 140a100.113 100.113 0 01-100 100H32v-32h328a8 8 0 008-8v-9.605A79.864 79.864 0 00432 352V208a80.09 80.09 0 00-80-80H128a8 8 0 00-8 8v31.753L37.121 104 120 40.247V72a8 8 0 008 8h252a100.113 100.113 0 01100 100z"/>
    <path d="M320 400h16v16h-16zm-32 0h16v16h-16zm-32 0h16v16h-16z"/>
  </symbol>
  <symbol xmlns="http://www.w3.org/2000/svg" viewBox="0 0 501.656 501.656" id="clock">
    <path d="M342.512 328h-200a8 8 0 00-5.656 2.344l-96 96 11.312 11.312L145.824 344h187.888c-1.664 9.496-6.888 24-23.2 24h-88v16h88c31.64 0 40-31.4 40-48a8 8 0 00-8-8z"/>
    <path d="M444.168 274.344a8 8 0 00-11.312 0l-72 72 11.312 11.312 65.712-65.712c10.828 14.37 8.629 34.68-5.024 46.4L339.2 432H174.512a8 8 0 00-5.656 2.344l-56 56 11.312 11.312L177.824 448h164.688a8 8 0 005.656-2.344l96-96c29.792-29.792 13.024-62.288 0-75.312zM262.512 0c-83.947 0-152 68.053-152 152s68.053 152 152 152c83.909-.093 151.907-68.091 152-152 0-83.947-68.053-152-152-152zm0 288c-75.111 0-136-60.889-136-136s60.89-136 136-136c75.076.084 135.916 60.924 136 136 0 75.111-60.889 136-136 136z"/>
    <path d="M262.512 40c-61.856 0-112 50.144-112 112s50.145 112 112 112c61.828-.066 111.934-50.172 112-112 0-61.856-50.144-112-112-112zm8 207.666V224h-16v23.666c-46.637-3.848-83.817-41.028-87.666-87.666h23.666v-16h-23.666c3.849-46.637 41.029-83.817 87.666-87.666V80h16V56.343c46.612 3.893 83.764 41.045 87.657 87.657h-23.657v16h23.666c-3.848 46.637-41.028 83.817-87.666 87.666z"/>
    <path d="M284.18 162.33a23.909 23.909 0 002.333-10.33c0-10.449-6.68-19.334-16-22.629V96h-16v33.371c-9.32 3.295-16 12.18-16 22.629-.001 13.255 10.745 24 23.999 24 3.711 0 7.225-.843 10.362-2.347l23.977 23.977 11.314-11.314-23.985-23.986zM262.512 160a8 8 0 110-16 8 8 0 010 16z"/>
  </symbol>
  <symbol xmlns="http://www.w3.org/2000/svg" viewBox="0 0 64 64" id="computer">
    <path d="M13.293 14.293l-3 3a1 1 0 000 1.414l3 3 1.414-1.414L12.414 18l2.293-2.293zm2.763 7.359l2.999-7.998 1.872.702-2.999 7.998zm7.651.055l3-3a1 1 0 000-1.414l-3-3-1.414 1.414L24.586 18l-2.293 2.293zM10 26h4v2h-4zm6 0h10v2H16zm-4 4h4v2h-4zm6 0h10v2H18zm12 0h2v2h-2zm-18 4h4v2h-4zm6 0h10v2H18zm12 0h2v2h-2zm31.142-20.99l-2.682-.383a10.86 10.86 0 00-.679-1.639l1.625-2.166a1 1 0 00-.093-1.307l-2.828-2.828a1 1 0 00-1.306-.093l-2.167 1.624a10.9 10.9 0 00-1.639-.678l-.383-2.682A1 1 0 0050 2h-4a1 1 0 00-.99.858l-.383 2.682a10.855 10.855 0 00-1.639.678l-2.167-1.624a1 1 0 00-1.306.093l-2.828 2.828a1 1 0 00-.093 1.307l1.625 2.166a10.86 10.86 0 00-.679 1.639l-2.682.383A1 1 0 0034 14v4a1 1 0 00.858.99l2.682.383a10.86 10.86 0 00.679 1.639l-1.625 2.166a1 1 0 00.093 1.307l2.828 2.828a1 1 0 001.306.093l2.167-1.624a10.855 10.855 0 001.639.678l.383 2.682A1 1 0 0046 30h4a1 1 0 00.99-.858l.383-2.682a10.9 10.9 0 001.639-.678l2.167 1.624a1 1 0 001.306-.093l2.828-2.828a1 1 0 00.093-1.307l-1.625-2.166a10.86 10.86 0 00.679-1.639l2.682-.383A1 1 0 0062 18v-4a1 1 0 00-.858-.99zM60 17.133l-2.463.352a1 1 0 00-.827.742 8.923 8.923 0 01-.977 2.357 1 1 0 00.061 1.111l1.492 1.99-1.6 1.6-1.991-1.492a1 1 0 00-1.11-.06 8.859 8.859 0 01-2.356.975 1 1 0 00-.744.828L49.133 28h-2.266l-.351-2.463a1 1 0 00-.744-.828 8.859 8.859 0 01-2.356-.975 1 1 0 00-1.11.06l-1.991 1.492-1.6-1.6 1.492-1.99a1 1 0 00.061-1.111 8.923 8.923 0 01-.977-2.357 1 1 0 00-.827-.742L36 17.133v-2.266l2.463-.352a1 1 0 00.827-.742 8.923 8.923 0 01.977-2.357 1 1 0 00-.061-1.111l-1.492-1.99 1.6-1.6 1.991 1.492a1 1 0 001.11.06 8.859 8.859 0 012.356-.975 1 1 0 00.744-.828L46.867 4h2.266l.351 2.463a1 1 0 00.744.828 8.859 8.859 0 012.356.975 1 1 0 001.11-.06l1.991-1.492 1.6 1.6-1.492 1.99a1 1 0 00-.061 1.111 8.923 8.923 0 01.977 2.357 1 1 0 00.827.742l2.464.353z"/>
    <path d="M48 10a6 6 0 106 6 6.006 6.006 0 00-6-6zm0 10a4 4 0 114-4 4 4 0 01-4 4z"/>
    <path d="M52 40H4V15a3 3 0 013-3h28v-2H7a5.006 5.006 0 00-5 5v30a5.006 5.006 0 005 5h12.867l-.75 6H17a2 2 0 00-2 2v2a2 2 0 002 2h22a2 2 0 002-2v-2a2 2 0 00-2-2h-2.117l-.75-6H49a5.006 5.006 0 005-5V29h-2zM39 60H17v-2h22zm-4.133-4H21.133l.75-6h12.234zM49 48H7a3 3 0 01-3-3v-3h48v3a3 3 0 01-3 3z"/>
    <path d="M46 44h2v2h-2z"/>
  </symbol>
  <symbol xmlns="http://www.w3.org/2000/svg" viewBox="0 0 50 2" id="line">
    <path fill="#63c3ef" d="M0 0h50v2H0z"/>
  </symbol>
  <symbol xmlns="http://www.w3.org/2000/svg" viewBox="0 0 16 11" id="tick">
    <path d="M2 4l4 4 8-8" fill="none" stroke="#2dd5a7" stroke-width="2"/>
  </symbol>
  <symbol xmlns="http://www.w3.org/2000/svg" viewBox="0 0 485.656 485.656" id="settings">
    <path d="M334.512 312h-200a8 8 0 00-5.656 2.344l-96 96 11.312 11.312L137.824 328h187.888c-1.664 9.496-6.888 24-23.2 24h-88v16h88c31.64 0 40-31.4 40-48a8 8 0 00-8-8z"/>
    <path d="M436.168 258.344a8 8 0 00-11.312 0l-72 72 11.312 11.312 65.712-65.712c10.828 14.37 8.629 34.68-5.024 46.4L331.2 416H166.512a8 8 0 00-5.656 2.344l-56 56 11.312 11.312L169.824 432h164.688a8 8 0 005.656-2.344l96-96c29.792-29.792 13.024-62.288 0-75.312zM390.512 112H361.76a111.297 111.297 0 00-8.792-21.192l20.344-20.344a8 8 0 000-11.312L339.36 25.208a8 8 0 00-11.312 0l-20.344 20.344a110.95 110.95 0 00-21.192-8.8V8a8 8 0 00-8-8h-48a8 8 0 00-8 8v28.752a110.95 110.95 0 00-21.192 8.8l-20.344-20.344a8 8 0 00-11.312 0l-33.952 33.944a8 8 0 000 11.312l20.352 20.344a111.392 111.392 0 00-8.8 21.192h-28.752a8 8 0 00-8 8v48a8 8 0 008 8h28.752a111.297 111.297 0 008.792 21.192l-20.344 20.344a8 8 0 000 11.312l33.952 33.952a8.232 8.232 0 0011.312 0l20.344-20.352a111.392 111.392 0 0021.192 8.8V280a8 8 0 008 8h48a8 8 0 008-8v-28.752a111.454 111.454 0 0021.192-8.792l20.344 20.344a8 8 0 0011.312 0l33.944-33.952a8 8 0 000-11.312l-20.344-20.344a111.392 111.392 0 008.8-21.192h28.752a8 8 0 008-8v-48a8 8 0 00-8-8zm-7.999 48h-26.888a8 8 0 00-7.784 6.16 95.729 95.729 0 01-11.68 28.144 8.001 8.001 0 001.152 9.864l19.032 19.024-22.64 22.64-19.024-19.04a8.001 8.001 0 00-9.864-1.152 95.436 95.436 0 01-28.144 11.688 8 8 0 00-6.16 7.784V272h-32v-26.88a8 8 0 00-6.16-7.784 95.436 95.436 0 01-28.144-11.688 8.001 8.001 0 00-9.864 1.152l-19.024 19.04-22.64-22.64 19.032-19.04a8.001 8.001 0 001.152-9.864 95.74 95.74 0 01-11.68-28.144 8 8 0 00-7.784-6.16h-26.888v-32H153.4a8 8 0 007.784-6.16 95.74 95.74 0 0111.68-28.144 8.001 8.001 0 00-1.152-9.864L152.68 64.8l22.632-22.624 19.032 19.032a8.001 8.001 0 009.864 1.152 95.198 95.198 0 0128.144-11.68 8 8 0 006.16-7.784V16h32v26.896a8 8 0 006.168 7.784 95.198 95.198 0 0128.144 11.68 8.001 8.001 0 009.864-1.152l19.024-19.032L356.345 64.8l-19.032 19.032a8.001 8.001 0 00-1.152 9.864 95.74 95.74 0 0111.68 28.144 8 8 0 007.784 6.16h26.888v32z"/>
    <path d="M254.512 96c-26.51 0-48 21.49-48 48s21.491 48 48 48c26.499-.026 47.974-21.501 48-48 0-26.51-21.49-48-48-48zm0 80c-17.673 0-32-14.327-32-32 0-17.673 14.327-32 32-32 17.673 0 32 14.327 32 32 0 17.673-14.327 32-32 32z"/>
  </symbol>
  <symbol xmlns="http://www.w3.org/2000/svg" viewBox="0 0 51 51" id="chevron">
    <circle cx="25.5" cy="25.5" r="25.5" fill="#393939"/>
    <rect x="24.4" y="27.9" width="1.6" height="15.24" rx=".8" transform="rotate(-39 11.114 37.674)"/>
    <rect x="33.3" y="27.9" width="1.6" height="15.24" rx=".8" transform="rotate(37.3 44.444 24.605)"/>
  </symbol>
  <symbol xmlns="http://www.w3.org/2000/svg" viewBox="0 0 21.8 23.8" id="search">
    <path d="M.1 8.6a8.7 8.7 0 00.8 4.8 1 1 0 001.2.4.8.8 0 00.4-1.2 8.3 8.3 0 01-.7-3.8A7.62 7.62 0 0117 9.9a7.7 7.7 0 01-11.8 5.8.8.8 0 00-1.2.2.9.9 0 00.2 1.3 10 10 0 004.5 1.5 9.3 9.3 0 006.1-1.7l5.5 6.4a.9.9 0 00.6.3.7.7 0 00.7-.2.9.9 0 00.1-1.2l-5.6-6.4a8.9 8.9 0 002.6-5.8A9.33 9.33 0 10.1 8.6z" fill="#ecf6fc"/>
  </symbol>
</svg>